<svg xmlns="http://www.w3.org/2000/svg" version="1.1" xmlns:xlink="http://www.w3.org/1999/xlink" xmlns:svgjs="http://svgjs.dev/svgjs" width="2000" height="1500" viewBox="0 0 2000 1500"><rect width="2000" height="1500" fill="#001c55"></rect><g transform="matrix(0.75,0,0,0.75,249.391208612774,515.4806454919022)"><svg viewBox="0 0 396 124" data-background-color="#001c55" preserveAspectRatio="xMidYMid meet" height="626" width="2000" xmlns="http://www.w3.org/2000/svg" xmlns:xlink="http://www.w3.org/1999/xlink"><g id="tight-bounds" transform="matrix(1,0,0,1,0.2400000000000091,-0.060915955262771604)"><svg viewBox="0 0 395.52 124.12183191052554" height="124.12183191052554" width="395.52"><g><svg viewBox="0 0 691.1557874787097 216.89806451612898" height="124.12183191052554" width="395.52"><g transform="matrix(1,0,0,1,295.6357874787097,0)"><svg viewBox="0 0 395.52 216.89806451612898" height="216.89806451612898" width="395.52"><g id="textblocktransform"><svg viewBox="0 0 395.52 216.89806451612898" height="216.89806451612898" width="395.52" id="textblock"><g><svg viewBox="0 0 395.52 216.89806451612898" height="216.89806451612898" width="395.52"><g transform="matrix(1,0,0,1,0,0)"><svg width="395.52" viewBox="0.5 -32.5 60.45 33.15" height="216.89806451612898" data-palette-color="#ffffff"><g class="wordmark-text-0" data-fill-palette-color="primary" id="text-0"><path d="M25.7 0.55L25.7 0.55Q24.15 0.55 23.08-0.78 22-2.1 21-5.15L21-5.15Q20.5-6.65 20.18-8.08 19.85-9.5 19.7-10.85L19.7-10.85Q19.05-9.85 18.53-9.53 18-9.2 17-9.2L17-9.2Q14.55-9.2 11.8-9.28 9.05-9.35 6.9-9.4L6.9-9.4Q6.8-8.5 6.73-7.58 6.65-6.65 6.65-5.75L6.65-5.75Q6.65-4.95 6.73-4.15 6.8-3.35 6.85-2.6L6.85-2.6Q7-1.2 5.75-0.35 4.5 0.5 2.65 0.5L2.65 0.5Q1.05 0.5 1.05-0.9L1.05-0.9Q1.05-1.75 1.5-3.45L1.5-3.45Q1.75-4.6 1.9-5.43 2.05-6.25 2.05-6.75L2.05-6.75Q2.05-8.15 1.2-8.65L1.2-8.65Q0.5-9.05 0.5-9.7L0.5-9.7Q0.5-10.3 0.78-11.15 1.05-12 1.5-12.73 1.95-13.45 2.35-13.75L2.35-13.75Q2.7-13.95 3.2-14.1 3.7-14.25 4.45-14.3L4.45-14.3Q6.4-19.9 8.83-23.98 11.25-28.05 14-30.28 16.75-32.5 19.6-32.5L19.6-32.5Q21.35-32.5 22.15-31.33 22.95-30.15 22.95-27.4L22.95-27.4 22.95-25.15Q22.95-20.1 23.7-15.85 24.45-11.6 25.55-8.95L25.55-8.95Q26.65-6.15 28.6-4.35L28.6-4.35Q29.2-3.85 29.4-3.48 29.6-3.1 29.6-2.7L29.6-2.7Q29.6-1.95 29.03-1.2 28.45-0.45 27.55 0.05 26.65 0.55 25.7 0.55ZM8.4-14.6L8.4-14.6Q10.85-14.7 12.7-14.78 14.55-14.85 15.8-14.85L15.8-14.85 19.3-14.85Q19.2-16.25 19.13-17.8 19.05-19.35 19.05-21.05L19.05-21.05 19.05-23.95Q19.05-25.4 18.73-25.88 18.4-26.35 17.5-26.35L17.5-26.35Q15.05-26.35 12.6-23.15 10.15-19.95 8.4-14.6ZM44.35 0.65L44.35 0.65Q40.9 0.65 38.15-0.9 35.4-2.45 33.8-5.4 32.2-8.35 32.2-12.55L32.2-12.55Q32.2-16.35 33.47-19.88 34.75-23.4 37.1-26.23 39.45-29.05 42.8-30.7 46.15-32.35 50.25-32.35L50.25-32.35Q53.25-32.35 55.25-31.4 57.25-30.45 57.25-28.6L57.25-28.6Q57.25-27.7 56.77-26.83 56.3-25.95 55.55-25.35 54.8-24.75 54-24.75L54-24.75Q53.5-24.75 53.2-25L53.2-25Q50.6-26.75 47.3-26.75L47.3-26.75Q43.8-26.75 41.4-25.13 39-23.5 37.77-20.85 36.55-18.2 36.55-15.1L36.55-15.1Q36.55-10.45 39.17-7.7 41.8-4.95 46.2-4.95L46.2-4.95Q48.1-4.95 49.75-5.5 51.4-6.05 52.45-7.1 53.5-8.15 53.5-9.65L53.5-9.65Q53.5-11.15 52.6-11.95 51.7-12.75 50.25-13.13 48.8-13.5 47.1-13.6L47.1-13.6Q45.9-13.7 45.32-13.9 44.75-14.1 44.75-15.1L44.75-15.1Q44.75-16.3 45.5-17.1 46.25-17.9 47.35-18L47.35-18Q48.85-18.15 50.95-18.23 53.05-18.3 55.32-18.32 57.6-18.35 59.6-18.35L59.6-18.35Q60.25-18.35 60.6-18.13 60.95-17.9 60.95-17.2L60.95-17.2Q60.95-16.35 60.57-15.35 60.2-14.35 59.55-13.65 58.9-12.95 58.05-12.95L58.05-12.95 57.25-12.95Q57.4-12.45 57.52-11.83 57.65-11.2 57.65-10.4L57.65-10.4Q57.65-8.2 56.6-6.23 55.55-4.25 53.7-2.7 51.85-1.15 49.45-0.25 47.05 0.65 44.35 0.65Z" fill="#ffffff" data-fill-palette-color="primary"></path></g></svg></g></svg></g></svg></g></svg></g><g transform="matrix(1,0,0,1,0,34.513181923367725)"><svg viewBox="0 0 244.43136 147.87170066939353" height="147.87170066939353" width="244.43136"><g><svg xmlns="http://www.w3.org/2000/svg" xmlns:xlink="http://www.w3.org/1999/xlink" version="1.1" viewBox="1.7184270925007046 20.00315461090323 92.5625729074993 55.99684538909677" x="0" y="0" height="147.87170066939353" width="244.43136" class="icon-icon-0" data-fill-palette-color="accent" id="icon-0"><path d="M28.288 74.572A2 2 0 0 1 26.872 73.988L2.304 49.416A2 2 0 0 1 2.304 46.588L26.872 22.012C27.652 21.232 28.924 21.232 29.7 22.012 30.48 22.792 30.48 24.06 29.7 24.84L6.544 47.996 29.7 71.152C30.48 71.932 30.48 73.2 29.7 73.98 29.312 74.376 28.8 74.572 28.288 74.572" fill="#ffffff" data-fill-palette-color="accent"></path><path d="M67.716 74.572A2 2 0 0 1 66.3 73.988 2 2 0 0 1 66.3 71.16L89.456 48 66.3 24.844C65.52 24.064 65.52 22.796 66.3 22.016S68.348 21.236 69.128 22.016L93.696 46.592C94.476 47.368 94.476 48.644 93.696 49.42L69.128 73.992C68.74 74.376 68.228 74.572 67.716 74.572" fill="#ffffff" data-fill-palette-color="accent"></path><path d="M38.288 76C38.044 76 37.804 75.952 37.564 75.868A2 2 0 0 1 36.42 73.284L56.42 21.284A2.003 2.003 0 0 1 59.004 20.136 2.004 2.004 0 0 1 60.152 22.72L40.152 74.72A2 2 0 0 1 38.288 76" fill="#ffffff" data-fill-palette-color="accent"></path></svg></g></svg></g></svg></g><defs></defs></svg><rect width="395.52" height="124.12183191052554" fill="none" stroke="none" visibility="hidden"></rect></g></svg></g></svg>